<svg width="48" height="48" viewBox="0 0 8484 10417" version="1.1" xmlns="http://www.w3.org/2000/svg"
     xml:space="preserve"
     style="fill-rule:evenodd;clip-rule:evenodd;stroke-linejoin:round;stroke-miterlimit:2;"><path d="M7084.49,5534.05c14.638,1576.39 1382.89,2100.97 1398.05,2107.64c-11.569,36.977 -218.624,747.554 -720.862,1481.53c-434.181,634.577 -884.766,1266.79 -1594.6,1279.89c-697.483,12.853 -921.762,-413.59 -1719.18,-413.59c-797.179,0 -1046.36,400.514 -1706.61,426.461c-685.169,25.948 -1206.94,-686.173 -1644.69,-1318.42c-894.532,-1293.26 -1578.14,-3654.44 -660.227,-5248.28c455.998,-791.506 1270.9,-1292.72 2155.41,-1305.57c672.819,-12.834 1307.86,452.65 1719.18,452.65c411.061,-0 1182.78,-559.787 1994.07,-477.574c339.637,14.136 1293.02,137.193 1905.18,1033.27c-49.327,30.579 -1137.56,664.096 -1125.73,1982m-1310.84,-3870.87c363.761,-440.318 608.593,-1053.28 541.8,-1663.18c-524.335,21.074 -1158.37,349.402 -1534.47,789.478c-337.051,389.708 -632.233,1013.46 -552.588,1611.28c584.431,45.217 1181.47,-296.986 1545.25,-737.584" style="fill:#fff;fill-rule:nonzero;"/></svg>