<?xml version="1.0" encoding="UTF-8" standalone="no"?><!DOCTYPE svg PUBLIC "-//W3C//DTD SVG 1.1//EN" "http://www.w3.org/Graphics/SVG/1.1/DTD/svg11.dtd"><svg width="100%" height="100%" viewBox="0 0 2134 2134" version="1.1" xmlns="http://www.w3.org/2000/svg" xmlns:xlink="http://www.w3.org/1999/xlink" xml:space="preserve" xmlns:serif="http://www.serif.com/" style="fill-rule:evenodd;clip-rule:evenodd;stroke-linejoin:round;stroke-miterlimit:2;"><g id="Layer_1-2"><path d="M1797.31,492.816l-612.428,-363.606c-72.689,-43.353 -163.625,-43.353 -236.314,-0l-612.551,363.606c-73.595,44.398 -118.542,124.489 -118.095,210.438l-0,727.09c-0.403,85.906 44.537,165.94 118.095,210.316l612.429,363.484c72.696,43.325 163.617,43.325 236.313,-0l612.429,-363.484c73.642,-44.368 118.638,-124.465 118.218,-210.438l-0,-726.968c0.446,-85.949 -44.5,-166.04 -118.096,-210.438Z" style="fill:#fff;fill-rule:nonzero;"/><path d="M1797.31,492.816l-612.428,-363.606c-72.689,-43.353 -163.625,-43.353 -236.314,-0l-612.551,363.606c-73.595,44.398 -118.542,124.489 -118.095,210.438l-0,727.09c-0.403,85.906 44.537,165.94 118.095,210.316l612.429,363.484c72.696,43.325 163.617,43.325 236.313,-0l612.429,-363.484c73.642,-44.368 118.638,-124.465 118.218,-210.438l-0,-726.968c0.446,-85.949 -44.5,-166.04 -118.096,-210.438Zm-827.404,1474.17l-612.428,-363.484c-60.451,-36.631 -97.383,-102.475 -97.125,-173.158l-0,-727.09c-0.283,-70.689 36.656,-136.544 97.125,-173.157l612.428,-363.607c59.522,-35.51 133.993,-35.51 193.515,0l611.938,363.607c50.417,30.536 84.864,81.825 94.059,140.046c-20.357,-43.289 -66.099,-55.185 -119.444,-24.526l-578.95,358.578c-72.231,42.063 -125.453,89.522 -125.576,176.592l0,713.968c0,52.119 20.97,85.843 53.345,95.776c-10.602,1.943 -21.351,2.969 -32.129,3.066c-34.054,-0.025 -67.481,-9.218 -96.758,-26.611Z" style="fill:#2f3a3e;fill-rule:nonzero;"/><path d="M1636.79,1500.61l-152.555,91.239c-4.079,1.639 -6.825,5.541 -6.99,9.933l-0,40.101c-0,4.905 3.311,6.868 7.358,4.538l154.885,-94.182c3.786,-2.839 5.606,-7.627 4.66,-12.264l-0,-35.195c-0.123,-4.538 -3.679,-6.5 -7.358,-4.17Z" style="fill:#3ab14a;fill-rule:nonzero;"/><path d="M1312.06,1164.72c4.905,-2.453 8.952,-0 9.075,6.99l0.49,53.222c18.343,-8.333 38.815,-10.817 58.619,-7.112c3.802,0.981 5.396,6.131 3.924,12.263l-11.65,46.723c-0.883,3.526 -2.706,6.747 -5.273,9.32c-0.902,0.89 -1.936,1.635 -3.066,2.208c-1.386,0.749 -2.986,1.009 -4.537,0.735c-19.307,-4.275 -39.536,-1.028 -56.534,9.075c-24.823,11.182 -41.117,35.695 -41.818,62.911c0,24.526 12.263,31.271 55.062,32.007c56.534,0.981 81.061,25.63 81.674,82.655c-1.346,59.488 -28.818,115.465 -75.052,152.923l0.981,52.241c-0.087,6.482 -3.463,12.494 -8.952,15.943l-30.903,17.781c-4.906,2.453 -8.952,0 -9.075,-6.867l-0,-51.383c-26.489,11.037 -53.345,13.612 -70.514,6.745c-3.188,-1.227 -4.66,-6.009 -3.311,-11.528l11.16,-47.213c0.848,-3.736 2.766,-7.146 5.518,-9.811c0.873,-0.836 1.865,-1.539 2.943,-2.085c1.598,-0.718 3.43,-0.718 5.028,0c21.853,5.925 45.187,2.97 64.873,-8.216c28.377,-13.686 46.889,-42.093 47.949,-73.58c0,-26.489 -14.593,-37.526 -49.053,-37.771c-44.516,0 -85.843,-8.584 -86.701,-73.58c1.023,-56.747 27.411,-110.153 71.863,-145.442l-2.208,-53.468c-0.02,-6.575 3.373,-12.71 8.952,-16.188l30.536,-19.498Z" style="fill:#fff;fill-rule:nonzero;"/></g></svg>