<?xml version="1.0" encoding="UTF-8" standalone="no"?>
<!DOCTYPE svg PUBLIC "-//W3C//DTD SVG 1.1//EN" "http://www.w3.org/Graphics/SVG/1.1/DTD/svg11.dtd">
<svg width="100%" height="100%" viewBox="0 0 500 500" version="1.1" xmlns="http://www.w3.org/2000/svg" xmlns:xlink="http://www.w3.org/1999/xlink" xml:space="preserve" xmlns:serif="http://www.serif.com/" style="fill-rule:evenodd;clip-rule:evenodd;stroke-linejoin:round;stroke-miterlimit:2;">
    <g transform="matrix(1.2694,0,0,1.2694,-67.4759,-67.5002)">
        <path id="XMLID_3_" d="M412.4,174.8C412.4,168.7 411.1,163.2 408.4,158.6C405.8,154 401.9,150.2 396.7,147.2C353.5,122.3 310.2,97.4 267,72.5C255.3,65.8 244.1,66 232.5,72.8C215.3,82.9 129.1,132.3 103.5,147.2C92.9,153.3 87.8,162.7 87.8,174.9L87.8,325.3C87.8,331.3 89.1,336.6 91.6,341.2C94.2,345.9 98.2,349.9 103.5,353C129.2,367.9 215.3,417.2 232.5,427.4C244.1,434.2 255.4,434.5 267,427.7C310.2,402.7 353.5,377.9 396.7,353C402.1,349.9 406,346 408.6,341.2C411.1,336.6 412.4,331.3 412.4,325.3L412.4,174.8" style="fill:rgb(154,73,147);fill-rule:nonzero;"/>
        <path id="XMLID_4_" d="M250.5,249.5L91.4,341.1C94,345.8 98,349.8 103.3,352.9C129,367.8 215.1,417.1 232.3,427.3C243.9,434.1 255.2,434.4 266.8,427.6C310,402.6 353.3,377.8 396.5,352.9C401.9,349.8 405.8,345.9 408.4,341.1L250.5,249.5" style="fill:rgb(106,21,119);fill-rule:nonzero;"/>
        <path id="XMLID_5_" d="M203.4,276.6C212.7,292.8 230.1,303.7 250,303.7C270.1,303.7 287.6,292.7 296.8,276.3L250.5,249.5L203.4,276.6" style="fill:rgb(106,21,119);fill-rule:nonzero;"/>
        <path id="XMLID_6_" d="M412.4,174.8C412.4,168.7 411.1,163.2 408.4,158.6L250.5,249.5L408.6,341.1C411.1,336.5 412.4,331.2 412.4,325.2L412.4,174.8" style="fill:rgb(129,48,132);fill-rule:nonzero;"/>
        <path id="XMLID_9_" d="M296.8,276.3C287.6,292.6 270.1,303.7 250,303.7C230,303.7 212.6,292.8 203.4,276.6C198.9,268.7 196.3,259.7 196.3,250C196.3,220.3 220.3,196.3 250,196.3C269.8,196.3 287.1,207.1 296.4,223.1L343.3,196.1C324.6,163.9 289.8,142.2 249.9,142.2C190.3,142.2 142.1,190.5 142.1,250C142.1,269.5 147.3,287.9 156.4,303.7C175,336 210,357.8 250,357.8C290.1,357.8 325.1,335.9 343.7,303.4L296.8,276.3" style="fill:white;fill-rule:nonzero;"/>
        <g id="XMLID_32_">
            <rect id="XMLID_2_" x="345.4" y="224.5" width="10.7" height="51.7" style="fill:white;"/>
            <rect id="XMLID_30_" x="369.1" y="224.5" width="10.7" height="51.7" style="fill:white;"/>
            <rect id="XMLID_31_" x="336.8" y="233.2" width="51.7" height="10.7" style="fill:white;"/>
            <rect id="XMLID_23_" x="336.8" y="256.8" width="51.7" height="10.7" style="fill:white;"/>
        </g>
    </g>
</svg>
