<?xml version="1.0" encoding="UTF-8" standalone="no"?>
<!DOCTYPE svg PUBLIC "-//W3C//DTD SVG 1.1//EN" "http://www.w3.org/Graphics/SVG/1.1/DTD/svg11.dtd">
<svg width="100%" height="100%" viewBox="0 0 2500 2500" version="1.1" xmlns="http://www.w3.org/2000/svg" xmlns:xlink="http://www.w3.org/1999/xlink" xml:space="preserve" xmlns:serif="http://www.serif.com/" style="fill-rule:evenodd;clip-rule:evenodd;stroke-linejoin:round;stroke-miterlimit:2;">
    <g transform="matrix(1,0,0,1,-3.80663,-631.122)">
        <path d="M289.291,1850.27L397.99,1850.27C397.264,1841.28 394.475,1830.31 389.612,1817.39C384.748,1804.47 375.916,1792.08 363.127,1780.28C350.326,1768.48 332.48,1758.38 309.588,1749.93C286.697,1741.49 256.685,1737.29 219.552,1737.29C195.766,1737.29 173.224,1740.18 151.967,1745.92C130.709,1751.67 112.137,1760.62 96.275,1772.69C80.413,1784.77 67.793,1800.23 58.429,1819.07C49.052,1837.89 44.37,1860.4 44.37,1886.5C44.37,1929.24 59.868,1962.68 90.879,1986.86C121.877,2011.03 165.857,2023.67 222.821,2024.79C247.697,2025.64 270.77,2023.27 292.04,2017.64C313.311,2012.01 331.961,2003.98 348.005,1993.6C364.048,1983.18 376.927,1971.03 386.668,1957.12C396.408,1943.22 401.985,1928.4 403.425,1912.64L289.317,1912.64C287.151,1921.63 283.83,1929.03 279.317,1934.78C274.816,1940.55 269.667,1945.12 263.909,1948.49C258.15,1951.86 252.016,1954.18 245.531,1955.45C239.046,1956.72 232.911,1957.35 227.152,1957.35C212.017,1957.35 199.579,1953.6 189.851,1946.18C180.242,1938.89 172.691,1929.23 167.945,1918.14C163.082,1906.89 160.734,1894.65 160.916,1881.46C161.097,1868.23 163.614,1856.03 168.477,1844.78C173.341,1833.54 180.293,1824.18 189.294,1816.74C198.295,1809.3 209.488,1805.57 222.821,1805.57C225.713,1805.57 229.85,1805.65 235.259,1805.78C240.667,1805.94 246.529,1807.27 252.82,1809.79C259.136,1812.32 265.53,1816.67 272.015,1822.86C278.487,1829.04 284.258,1838.19 289.291,1850.27ZM428.275,1746.56L428.275,2019.77L546.702,2019.77L546.702,1915.19L649.993,1915.19L649.993,2019.77L768.407,2019.77L768.407,1746.56L649.993,1746.56L649.993,1838.46L546.702,1838.46L546.702,1746.56L428.275,1746.56ZM795.449,1859.14L890.621,1859.14C890.621,1841.99 894.953,1829.9 903.604,1822.86C912.254,1815.85 921.813,1812.05 932.267,1811.49C942.72,1810.93 952.266,1812.9 960.917,1817.39C969.568,1821.9 973.887,1827.09 973.887,1832.99C974.613,1839.45 973.796,1845.35 971.448,1850.69C969.101,1856.04 964.419,1861.51 957.389,1867.14C950.36,1872.77 940.451,1879.15 927.649,1886.32C914.848,1893.5 898.532,1902.28 878.715,1912.66C844.461,1930.65 821.038,1948.99 808.418,1967.68C795.799,1986.37 791.467,2003.73 795.436,2019.77L1076.1,2019.77L1076.1,1954.84L924.148,1954.84C936.767,1948.94 951.644,1942.4 968.764,1935.23C985.884,1928.06 1002.38,1920.11 1018.23,1911.42C1034.09,1902.7 1047.97,1893.29 1059.86,1883.14C1071.76,1873.04 1078.61,1862.07 1080.41,1850.27C1082.21,1838.23 1081.47,1825.95 1078.24,1814.22C1075,1802.29 1068.06,1791.53 1057.42,1781.98C1046.79,1772.43 1032.19,1764.63 1013.63,1758.57C995.066,1752.54 971.539,1749.51 943.058,1749.51C914.576,1749.51 890.971,1752.19 872.23,1757.53C853.488,1762.88 838.612,1770.37 827.627,1780.07C816.89,1789.39 808.699,1801.3 803.827,1814.65C798.963,1828 796.162,1842.82 795.449,1859.14ZM1265.69,1746.56L1110.58,1746.56L1110.58,2019.77L1211.91,2019.77L1211.91,1892.7L1203.61,1830.31L1286.42,2019.77L1378.78,2019.77L1456.49,1833.28L1447.01,1892.7L1447.01,2019.77L1553.45,2019.77L1553.45,1746.56L1398.91,1746.56L1331.42,1912.66L1265.69,1746.56ZM1812.29,1862.83L1654.2,1862.83L1654.2,1752.19L1613.3,1752.19L1613.3,2019.69L1654.2,2019.69L1654.2,1894.88L1812.29,1894.88L1812.29,2019.69L1853.18,2019.69L1853.18,1752.19L1812.29,1752.19L1812.29,1862.83ZM1964.49,1752.19L1923.6,1752.19L1923.6,2019.69L1964.49,2019.69L1964.49,1752.19ZM2075.37,1752.19L2034.48,1752.19L2034.48,2019.69L2228.83,2019.69L2228.83,1987.64L2075.37,1987.64L2075.37,1752.19ZM2309.78,1752.19L2268.88,1752.19L2268.88,2019.69L2463.24,2019.69L2463.24,1987.64L2309.78,1987.64L2309.78,1752.19Z" style="fill:rgb(187,187,187);stroke:rgb(187,187,187);stroke-width:1px;"/>
    </g>
</svg>
