<?xml version="1.0" encoding="UTF-8" standalone="no"?><!DOCTYPE svg PUBLIC "-//W3C//DTD SVG 1.1//EN" "http://www.w3.org/Graphics/SVG/1.1/DTD/svg11.dtd"><svg width="100%" height="100%" viewBox="0 0 683 683" version="1.1" xmlns="http://www.w3.org/2000/svg" xmlns:xlink="http://www.w3.org/1999/xlink" xml:space="preserve" xmlns:serif="http://www.serif.com/" style="fill-rule:evenodd;clip-rule:evenodd;stroke-linejoin:round;stroke-miterlimit:2;"><g><g><clipPath id="_clip1"><rect x="87.026" y="54.149" width="507.912" height="574.385"/></clipPath><g clip-path="url(#_clip1)"><path d="M551.026,456.785l-209.693,121.078l-209.71,-121.078l0,-230.885l209.71,-121.061l209.693,121.061l-0,230.885Zm-209.693,-402.653l-253.604,146.432l-0,281.556l253.604,146.415l253.605,-146.415l-0,-281.556l-253.605,-146.432" style="fill:#b3b3b3;fill-rule:nonzero;"/></g></g><path d="M326.69,519.483c0,2.178 -2.335,3.53 -4.214,2.441l-147.626,-85.243c-2.598,-1.493 -4.213,-4.267 -4.213,-7.287l-0,-164.832c-0,-2.16 2.335,-3.512 4.213,-2.423l147.626,85.208c2.616,1.51 4.214,4.319 4.214,7.321l0,164.815" style="fill:#b3b3b3;fill-rule:nonzero;"/><path d="M488.292,239.595l-141.323,81.608c-3.494,2.002 -7.795,2.002 -11.272,0l-141.322,-81.608c-1.879,-1.071 -1.879,-3.793 -0,-4.864l141.322,-81.591c3.477,-2.036 7.778,-2.036 11.272,0l141.323,81.591c1.879,1.071 1.879,3.793 0,4.864" style="fill:#b3b3b3;fill-rule:nonzero;"/><path d="M488.292,447.953l-128.102,73.971c-1.896,1.089 -4.231,-0.281 -4.231,-2.441l-0,-147.924c-0,-2.177 2.335,-3.511 4.231,-2.423l128.102,73.953c1.879,1.072 1.879,3.793 0,4.864" style="fill:#ed3130;fill-rule:nonzero;"/></g></svg>