<svg width="48" height="48" viewBox="0 0 2134 2134" version="1.1" xmlns="http://www.w3.org/2000/svg"
     xml:space="preserve"
     style="fill-rule:evenodd;clip-rule:evenodd;stroke-linejoin:round;stroke-miterlimit:2;">
    <g><path d="M368.837,1840.8l-155.308,-1741.63l1706.28,-0l-155.502,1741.35l-698.696,193.654l-696.77,-193.365Z" style="fill:#1572b6;fill-rule:nonzero;"/><path d="M1066.67,1886.18l564.583,-156.561l132.764,-1488.05l-697.347,0l-0,1644.62Z" style="fill:#33a9dc;fill-rule:nonzero;"/><path d="M1066.67,872.531l282.677,-0l19.462,-218.704l-302.139,-0l-0,-213.501l535.68,-0l-5.106,57.325l-52.509,588.67l-478.065,0l-0,-213.79Z" style="fill:#fff;fill-rule:nonzero;"/><path d="M1068.31,1427.29l-1.446,0l-237.876,-64.262l-15.223,-170.339l-214.272,0l29.963,335.379l437.601,121.78l1.253,0l-0,-222.558Z" style="fill:#ebebeb;fill-rule:nonzero;"/><path d="M1331.23,1076.98l-25.724,285.856l-238.262,64.263l-0,222.557l437.889,-121.395l3.18,-36.129l37.189,-415.249l-214.272,0l-0,0.097Z" style="fill:#fff;fill-rule:nonzero;"/><path d="M1067.44,440.326l0,213.597l-515.833,0l-4.431,-47.98l-9.731,-108.292l-5.107,-57.325l535.102,-0Zm-0.77,432.205l-0,213.597l-235.179,0l-4.143,-47.98l-9.731,-108.292l-5.106,-57.325l254.159,-0Z" style="fill:#ebebeb;fill-rule:nonzero;"/></g></svg>