<?xml version="1.0" encoding="UTF-8" standalone="no"?>
<svg width="48" height="48" viewBox="0 0 200 200" version="1.1" xmlns="http://www.w3.org/2000/svg"
     xml:space="preserve"
     style="fill-rule:evenodd;clip-rule:evenodd;stroke-linejoin:round;stroke-miterlimit:2;"><g><g><path d="M33.04,174.277l-14.9,-167.115l163.72,0l-14.916,167.088l-67.045,18.588l-66.86,-18.561l0.001,-0Z" style="fill:#e44d26;fill-rule:nonzero;"/><path d="M100,178.631l54.175,-15.02l12.747,-142.784l-66.922,-0l-0,157.804l-0,-0Z" style="fill:#f16529;fill-rule:nonzero;"/><path d="M100,82.807l-27.121,0l-1.873,-20.988l28.994,0l-0,-20.496l-51.394,0l0.491,5.499l5.037,56.481l45.866,-0l-0,-20.496l-0,0Zm-0,53.23l-0.09,0.024l-22.826,-6.164l-1.46,-16.345l-20.574,-0l2.872,32.181l41.984,11.655l0.094,-0.026l-0,-21.325l-0,-0Z" style="fill:#ebebeb;fill-rule:nonzero;"/><path d="M99.929,82.807l0,20.496l25.239,-0l-2.379,26.582l-22.86,6.169l0,21.323l42.018,-11.644l0.308,-3.464l4.817,-53.958l0.5,-5.504l-47.643,0l0,0Zm0,-41.484l0,20.496l49.508,0l0.41,-4.607l0.934,-10.39l0.491,-5.499l-51.343,0l0,0Z" style="fill:#fff;fill-rule:nonzero;"/></g></g></svg>