<?xml version="1.0" encoding="UTF-8" standalone="no"?>
<!DOCTYPE svg PUBLIC "-//W3C//DTD SVG 1.1//EN" "http://www.w3.org/Graphics/SVG/1.1/DTD/svg11.dtd">
<svg width="100%" height="100%" viewBox="0 0 512 512" version="1.1" xmlns="http://www.w3.org/2000/svg" xmlns:xlink="http://www.w3.org/1999/xlink" xml:space="preserve" xmlns:serif="http://www.serif.com/" style="fill-rule:evenodd;clip-rule:evenodd;stroke-linejoin:round;stroke-miterlimit:2;">
    <g transform="matrix(1,0,0,1,22.2726,23.5193)">
        <g transform="matrix(0.537024,0,0,0.537024,0.00234435,47.2088)">
            <path d="M621.035,418.861L621.018,536.608L728.502,536.608L728.502,321.632C697.361,353.747 661.447,386.454 621.035,418.861" style="fill:rgb(0,137,209);fill-rule:nonzero;"/>
        </g>
        <g transform="matrix(0.537024,0,0,0.537024,0.00234435,47.2088)">
            <path d="M728.502,321.632C846.865,199.52 895.892,86.013 857.729,31.38C817.891,-25.678 694.129,-2.56 533.703,82.206C527.383,85.253 521.291,88.752 515.475,92.677C507.728,98.059 512.243,101.966 517.966,99.892C524.814,97.473 531.52,94.669 538.052,91.494C658.306,34.462 752.103,24.232 788.766,64.036C844.641,124.668 730.218,323.365 532.078,470.337C505.628,489.947 464.807,518.672 438.224,534.625C436.424,535.742 434.65,536.841 432.917,537.941C425.886,542.548 419.63,546.83 414.706,550.687C409.908,554.411 410.832,560.342 419.48,556.618C424.753,554.369 431.151,550.962 437.966,546.788C439.507,545.847 441.023,544.989 442.639,543.997C472.513,525.861 516.866,495.237 547.166,474.077C572.379,456.473 597.012,438.052 621.026,418.844C661.447,386.454 697.361,353.731 728.502,321.632" style="fill:rgb(0,137,209);fill-rule:nonzero;"/>
        </g>
        <g transform="matrix(0.537024,0,0,0.537024,0.00234435,47.2088)">
            <path d="M200.88,689.961L308.364,689.961L308.364,578.578C338.413,560.749 367.881,541.956 396.72,522.229C403.293,517.714 409.116,513.215 413.34,509.358C420.296,502.993 415.256,499.728 409.891,502.552C404.368,505.467 397.836,509.4 390.763,513.898C224.731,620.099 112.64,652.506 71.253,596.315C35.298,547.53 94.229,453.208 200.888,346.691L200.888,593.924C231.146,583.652 266.91,567.265 308.347,544.222L308.322,314.834L331.965,365.144C357.882,420.693 404.909,453.908 464.707,453.908C524.481,453.908 571.508,420.693 597.425,365.144L621.068,314.834L621.043,373.358C659.506,336.053 692.346,298.814 717.247,262.792C720.354,258.343 720.079,254.594 718.388,250.479C701.316,214.796 665.098,192.006 625.542,192.055C585.004,192.055 549.798,215.565 532.92,249.571L487.934,345C483.285,354.289 474.721,359.446 464.699,359.446C454.702,359.446 446.088,354.289 441.44,345L396.47,249.588C387.875,232.312 374.635,217.767 358.24,207.592C391.138,181.483 423.112,158.166 454.594,139.055C460.807,135.23 466.803,131.064 472.555,126.575C477.42,122.868 476.521,116.937 467.848,120.577C462.575,122.785 455.752,126.142 448.921,130.299C416.756,149.785 383.874,169.72 352.442,191.205C348.626,193.805 344.861,196.412 341.095,199.02C329.22,194.407 316.588,192.048 303.848,192.064C303.812,192.064 303.776,192.064 303.74,192.064C247.317,192.064 200.888,238.492 200.888,294.915C200.888,294.96 200.888,295.004 200.888,295.049L200.888,309.219C49.043,444.619 -30.674,578.678 10.98,638.368C41.562,682.138 114.082,672.033 200.88,634.32L200.88,689.961" style="fill:rgb(0,137,209);fill-rule:nonzero;"/>
        </g>
    </g>
</svg>
