<?xml version="1.0" encoding="UTF-8" standalone="no"?><!DOCTYPE svg PUBLIC "-//W3C//DTD SVG 1.1//EN" "http://www.w3.org/Graphics/SVG/1.1/DTD/svg11.dtd"><svg width="100%" height="100%" viewBox="0 0 683 683" version="1.1" xmlns="http://www.w3.org/2000/svg" xmlns:xlink="http://www.w3.org/1999/xlink" xml:space="preserve" xmlns:serif="http://www.serif.com/" style="fill-rule:evenodd;clip-rule:evenodd;stroke-linejoin:round;stroke-miterlimit:2;"><path d="M251.204,410.495c-16.374,-16.723 -23.046,-39.048 -7.565,-59.205c-0,0 -17.026,9.524 -16.323,39.643l-4.677,-2.107c-1.172,8.826 0.972,25.172 6.45,31.23c-27.411,-8.035 -33.818,-19.742 -40.797,-32.278l-0.35,7.845c-4.704,-4.182 -8.892,-16.214 -8.892,-16.214c-6.299,49.138 36.075,62.61 77.371,67.117c45.106,4.919 74.627,2.871 98.409,-9.021c-0,-0 -32.39,28.299 -98.82,17.225c-66.388,-11.065 -72.785,-20.18 -100.523,-14.722c-38.633,11.628 -114.35,54.905 -145.847,73.741c-9.853,-2.96 141.368,-97.257 148.718,-104.608c6.115,-6.11 8.953,-7.822 9.703,-12.154l0,-0.005c0.162,-0.926 0.228,-1.973 0.208,-3.206c4.342,-61.763 32.608,-120.209 92.613,-145.21c2.996,-27.786 15.08,-65.192 49.879,-79.648c-6.178,9.026 -12.13,20.621 -15.177,34.441c-5.845,26.512 -5.021,51.816 -4.355,61.809l-17.681,-9.334c10.492,8.017 19.607,14.997 30.634,21.976l1.885,1.187c17.522,11.033 87.304,39.914 87.764,40.285c-0,0 8.719,-8.547 20.925,-6.625c12.204,1.917 10.459,4.099 7.147,8.022c-1.811,2.14 -2.006,4.177 -1.816,5.583l-20.933,-4.601c27.56,8.957 85.131,27.875 108.027,24.771c0,-0 -12.214,-2.623 -20.989,-6.927c57.051,-55.506 86.206,-68.436 153.455,-107.042c18.829,-10.813 40.797,-10.813 31.733,1.74c-9.069,12.559 -92.403,105.307 -97.977,138.082c-0.893,5.257 23.842,134.959 22.664,135.809c-26.257,18.975 -109.446,-118.756 -117.683,-144.348c-22.659,0.893 -46.115,2.718 -68.723,1.364c-4.895,-19.841 -29.523,-35.674 -29.523,-35.674c15.336,12.752 37.563,44.099 14.405,62c-3.839,2.969 -14.471,4.184 -23.363,-0c-6.676,-3.141 -14.921,-4.708 -23.706,-4.188c0.013,-0.154 0.023,-0.317 0.023,-0.479c0,-1.448 -0.623,-2.625 -1.392,-2.625c-0.766,0 -1.39,1.177 -1.39,2.625c-0,0.241 0.018,0.479 0.051,0.702c-2.042,0.219 -4.109,0.55 -6.189,1.001c-12.028,2.615 -8.021,2.969 -41.146,-5.574c-28.69,-7.403 -39.853,5.337 -42.328,8.887c-11.139,-17.296 -1.168,-35.158 -1.168,-35.158c-12.284,9.45 -11.278,41.821 -2.731,53.868m122.14,11.785c14.21,10.898 129.069,99.611 107.986,90.184c-44.59,-19.937 -78.831,-55.78 -116.739,-80.282c3.459,-1.675 8.753,-9.902 8.753,-9.902m-110.727,-17.015c0,-0 5.574,-16.802 24.066,-14.103c18.486,2.698 44.035,12.465 64.187,12.465c20.157,-0 28.882,-3.117 28.882,-3.117c-3.332,9.054 -9.335,11.902 -17.872,14.55l-3.011,-2.136c-0.87,1.568 -4.095,3.573 -4.095,3.573l-3.141,-3.23c-2.251,4.012 -9.162,3.928 -9.162,3.928l-2.354,-4.101c-1.484,3.403 -4.443,4.19 -4.443,4.19c-2.266,-2.881 -3.84,-7.846 -3.84,-7.846c-1.887,3.885 -7.933,7.146 -7.933,7.146c-3.312,-2.531 -6.188,-9.673 -6.188,-9.673c-2.088,2.267 -7.236,7.32 -7.236,7.32c-1.661,-2.179 -4.01,-9.585 -4.01,-9.585c-1.567,2.443 -9.939,5.225 -9.939,5.225c-0.953,-1.303 -2.963,-7.928 -2.963,-7.928l-2.528,4.271c-0.088,-2.787 -2.004,-6.803 -2.004,-6.803c-2.006,1.048 -5.231,3.838 -5.231,3.838c-0.343,-2.181 -2.874,-4.093 -2.874,-4.093l-3.751,2.437c-0.781,-2.437 -3.434,-4.649 -3.226,-4.01l-0.725,-0.456c-4.081,1.455 -7.677,4.034 -10.609,8.138m23.921,-56.018c0,-0 3.35,10.461 9.939,14.648c0,0 20.226,-3.485 28.243,0c-12.595,-13.68 -19.478,-16.964 -38.182,-14.648" style="fill:#bbbbbb;"/></svg>