<?xml version="1.0" ?><svg enable-background="new 0 0 515.91 728.5" height="512" id="Layer_1" version="1.1" viewBox="0 0 512.00003 512" width="512" xml:space="preserve" xmlns="http://www.w3.org/2000/svg" xmlns:cc="http://creativecommons.org/ns#" xmlns:dc="http://purl.org/dc/elements/1.1/" xmlns:inkscape="http://www.inkscape.org/namespaces/inkscape" xmlns:rdf="http://www.w3.org/1999/02/22-rdf-syntax-ns#" xmlns:sodipodi="http://sodipodi.sourceforge.net/DTD/sodipodi-0.dtd" xmlns:svg="http://www.w3.org/2000/svg"><defs id="defs7"/><g id="g6831" transform="translate(-234.69202,-271.463)"><path d="m -733.62329,72.267944 c 0,203.804876 -165.21649,369.021366 -369.02141,369.021366 -203.8048,0 -369.0213,-165.21649 -369.0213,-369.021366 0,-203.804874 165.2165,-369.021364 369.0213,-369.021364 203.80492,0 369.02141,165.21649 369.02141,369.021364 z" id="path5062" style="fill:#ee7314;fill-opacity:1;fill-rule:nonzero;stroke:none" transform="matrix(0.69372682,0,0,0.69372682,1255.6262,477.32879)"/><g id="g7322" style="fill:#ffffff;fill-opacity:1" transform="matrix(1.9469177,0,0,1.9469177,-182.5222,-1016.9921)"><path d="m 390.5425,758.69965 c 0.21876,-1.19544 3.11359,-8.38614 3.11359,-8.38614 3.58643,-8.07842 1.307,-13.86841 1.307,-13.86841 -2.11439,-7.84647 -8.18544,-13.97997 -8.18544,-13.97997 0.2944,0.21875 2.14115,5.12984 2.14115,5.12984 4.25553,11.75406 -7.15502,18.49869 -7.15502,18.49869 -2.93962,1.94038 -7.73937,6.5662 -7.73937,6.5662 -6.73124,6.57958 -4.69711,14.64454 -4.69711,14.64454 l 0.26764,0.12026 c 8.00702,1.96722 15.52781,5.15661 22.36165,9.34527 -4.52764,-8.80998 -1.41405,-18.07046 -1.41405,-18.07046" id="path212" style="fill:#ffffff;fill-opacity:1;fill-rule:nonzero;stroke:none"/><path d="m 413.94618,796.79919 c -0.7494,-9.68871 5.45101,-16.95524 5.45101,-16.95524 0.63789,-1.03482 5.99523,-6.61519 5.99523,-6.61519 6.34762,-6.16481 6.40561,-12.38753 6.40561,-12.38753 0.97244,-8.06946 -2.37757,-16.02295 -2.37757,-16.02295 0.18307,0.30797 0.0671,5.55815 0.0671,5.56261 -0.43269,12.48551 -13.53386,14.49291 -13.53386,14.49291 -3.46153,0.70919 -9.64411,3.21173 -9.64411,3.21173 -8.06054,3.33656 -9.60841,10.65662 -9.78238,11.70489 6.64203,4.74622 12.51235,10.48718 17.41916,17.00877" id="path214" style="fill:#ffffff;fill-opacity:1;fill-rule:nonzero;stroke:none"/><path d="m 460.83693,780.74634 c 0.0625,0.36578 -2.01625,5.20121 -2.01625,5.20121 -5.03613,11.4284 -17.9366,8.41298 -17.9366,8.41298 -3.47491,-0.61558 -10.14371,-0.59778 -10.14371,-0.59332 -9.41214,0.10706 -13.51156,7.33791 -13.51156,7.33791 l 0.49515,1.19994 c 4.09495,6.55285 7.25315,13.73459 9.29616,21.38028 2.7835,-9.55042 11.49977,-14.14048 11.50869,-14.14048 0.9769,-0.70037 8.0204,-3.92102 8.0204,-3.92102 8.18101,-3.3589 10.54074,-9.10435 10.54074,-9.10435 3.88976,-7.1416 3.74702,-15.77315 3.74702,-15.77315" id="path216" style="fill:#ffffff;fill-opacity:1;fill-rule:nonzero;stroke:none"/><path d="m 363.36862,766.17448 c -7.13718,-6.50821 -7.65908,-15.97834 -7.65908,-15.97834 -0.26764,-1.18655 -0.23624,-8.92146 -0.22768,-8.92146 0.33438,-8.83225 -3.9299,-13.37328 -3.9299,-13.37328 -4.85328,-6.51713 -12.78,-9.96527 -12.78,-9.96527 0.36132,0.0981 3.90314,3.98789 3.90314,3.98789 8.2925,9.32293 0.20056,19.82349 0.20056,19.82349 -2.01179,2.89948 -4.75514,8.97054 -4.75514,8.97054 -3.59981,8.12745 0.55313,14.58213 1.01258,15.278 4.04143,-0.59774 8.19883,-0.88322 12.4053,-0.83861 4.03696,0.0403 7.98471,0.38362 11.82986,1.01704" id="path218" style="fill:#ffffff;fill-opacity:1;fill-rule:nonzero;stroke:none"/><path d="m 320.17042,755.03297 c -0.65572,-1.00813 -3.53736,-8.18991 -3.53736,-8.18991 -2.96638,-8.32822 -8.60475,-10.95556 -8.60475,-10.95556 -6.95428,-4.22877 -15.57688,-4.49199 -15.57688,-4.49199 0.37025,-0.0357 5.09862,2.25271 5.09862,2.25271 11.18752,5.57145 7.57878,18.32468 7.57878,18.32468 -0.78508,3.43473 -1.07503,10.10356 -1.07503,10.10356 -0.3433,9.38981 6.70002,13.83716 6.70002,13.83716 l 0.33437,-0.11598 c 6.83831,-3.9834 14.35018,-6.96763 22.2992,-8.73412 -9.15788,-3.34555 -13.21715,-12.03055 -13.21715,-12.03055" id="path220" style="fill:#ffffff;fill-opacity:1;fill-rule:nonzero;stroke:none"/><path d="m 305.99468,779.01961 c -9.70209,0.2498 -16.65191,-6.28071 -16.65191,-6.28071 -0.99028,-0.69142 -6.30748,-6.30748 -6.30748,-6.30748 -5.83909,-6.63757 -12.07074,-6.98551 -12.07074,-6.98551 -8.01147,-1.36498 -16.10324,1.58802 -16.10324,1.58802 0.32117,-0.16522 5.55361,0.20092 5.56253,0.20092 12.44545,1.04381 13.80597,14.22081 13.80597,14.22081 0.53529,3.48829 2.74331,9.78685 2.74331,9.78685 3.1627,8.85455 11.33922,10.37566 11.33922,10.37566 l 0.16487,-0.13811 c 4.97817,-6.3387 10.88864,-11.89677 17.51729,-16.4601" id="path222" style="fill:#ffffff;fill-opacity:1;fill-rule:nonzero;stroke:none"/><path d="m 267.11715,800.88925 c -1.18209,-0.27228 -8.20774,-3.51505 -8.20774,-3.51505 -7.87766,-4.02804 -13.78813,-2.04748 -13.78813,-2.04748 -7.94902,1.69062 -14.39032,7.4405 -14.39032,7.4405 0.24088,-0.28084 5.25028,-1.8735 5.25028,-1.8735 11.95477,-3.6355 18.08827,8.11407 18.08827,8.11407 1.77983,3.03776 6.16473,8.07838 6.16473,8.06946 6.20488,7.06134 14.3814,5.45994 14.3814,5.45994 l 0.2052,-0.40593 c 2.2259,-7.72153 5.61606,-14.93899 9.94297,-21.50073 -8.8724,3.73363 -17.64666,0.25872 -17.64666,0.25872" id="path224" style="fill:#ffffff;fill-opacity:1;fill-rule:nonzero;stroke:none"/></g></g></svg>