<svg aria-hidden="true" focusable="false" data-prefix="fad" data-icon="window" class="svg-inline--fa fa-window fa-w-16" role="img" xmlns="http://www.w3.org/2000/svg" viewBox="0 0 512 512"><g class="fa-group"><path class="fa-secondary" fill="currentColor" d="M288 160a32 32 0 1 0-32-32 32 32 0 0 0 32 32zm-96 0a32 32 0 1 0-32-32 32 32 0 0 0 32 32zM0 224v208a48 48 0 0 0 48 48h416a48 48 0 0 0 48-48V224z" opacity="0.4"></path><path class="fa-primary" fill="currentColor" d="M464 32H48A48 48 0 0 0 0 80v144h512V80a48 48 0 0 0-48-48zM96 160a32 32 0 1 1 32-32 32 32 0 0 1-32 32zm96 0a32 32 0 1 1 32-32 32 32 0 0 1-32 32zm96 0a32 32 0 1 1 32-32 32 32 0 0 1-32 32z"></path></g></svg>